<svg xmlns="http://www.w3.org/2000/svg" viewBox="0 0 273.82 275.63">
  <defs>
    <style>
      .cls-1 {
        fill: #fff;
      }

      .cls-2 {
        fill: #af8b1d;
      }

      .cls-3 {
        fill: #fdeaac;
      }

      .cls-4 {
        fill: none;
        stroke: #604c3f;
        stroke-linecap: round;
        stroke-miterlimit: 10;
        stroke-width: 14px;
      }
    </style>
  </defs>
  <g id="圖層_2" data-name="圖層 2">
    <g id="圖層_1-2" data-name="圖層 1">
      <g>
        <circle class="cls-1" cx="151.91" cy="137.9" r="121.91"/>
        <path class="cls-2" d="M273.82,137.9a136.44,136.44,0,0,1-8.33,47A138.88,138.88,0,0,1,202,258.78,135.59,135.59,0,0,1,47.42,242.39a137.78,137.78,0,0,1-34.89-46.75,139.78,139.78,0,0,1-.08-115.51A137.57,137.57,0,0,1,47.31,33.31,135.05,135.05,0,0,1,124.59.49,137.45,137.45,0,0,1,241,48.8a139.16,139.16,0,0,1,24.5,42.05A136.69,136.69,0,0,1,273.82,137.9Zm0,0A110,110,0,0,0,263.6,91.64a107.7,107.7,0,0,0-28.39-37,105.14,105.14,0,0,0-61.84-24.52,106.38,106.38,0,0,0-60,14.7,109.14,109.14,0,0,0-47.27,57.59A107.78,107.78,0,0,0,66,173.48a109,109,0,0,0,47.29,57.72,104.33,104.33,0,0,0,18.34,8.62,105.38,105.38,0,0,0,103.64-18.57,107.83,107.83,0,0,0,28.36-37.08A110.26,110.26,0,0,0,273.82,137.9Z"/>
        <circle class="cls-3" cx="151.91" cy="137.9" r="121.91"/>
      </g>
      <path class="cls-4" d="M88.7,98.4c6.16,3.91,15.84,8,29.3,9.72,12.37,1.62,30.81,1.56,45.35-6.48,10.4-5.75,15.08-16.77,10.75-29.59-3.44-10.16-13.43-17.46-25.78-16.64-15.6,1-23.28,11.94-23,26.36.36,16.37,7.52,22.38,29.89,56.13,11,16.63,14.67,32.36,13.94,43-1.53,21.95-15.12,28.71-23.07,33.13-17.7,9.83-48.49,9.27-63.22-7.37-7.72-8.73-9.38-18.93-5-31.06,1.42-3.89,5.57-8.91,10.16-12.08A33.74,33.74,0,0,1,103.57,158a34.32,34.32,0,0,1,8.71-.09c10.82.89,18.26,4,31.78,12.46,11.65,7.28,19.59,13.12,22.67,15.32,10.51,7.48,36.37,20.61,61.55,26.5"/>
    </g>
  </g>
</svg>
